# xmcd
#
# Track frame offsets:
#	150
#	12158
#	23528
#	32738
#	42631
#	54204
#	64457
#	75062
#	85480
#	96010
#	105378
#	115256
#	125554
#
# Disc length: 1688 seconds
#
# Revision: 1
# Processed by: cddbd v1.5.2PL0 Copyright (c) Steve Scherf et al.
# Submitted via: audiograbber 1.83.01
#
DISCID=9806960d
DTITLE=Hank Thompson - It's Christmas Time
DYEAR=1964
DGENRE=Country
TTITLE0=White Christmas
TTITLE1=Santa Claus Is Comin' To Town
TTITLE2=I'd Like To Have An Elephant For Christmas
TTITLE3=Gonna Wrap My Heart In Ribbons
TTITLE4=Blue Christmas
TTITLE5=Mr and Mrs Snowman
TTITLE6=It's Christmas Time
TTITLE7=Rudolph, The Red-Nosed Raindeer
TTITLE8=Silver Bells
TTITLE9=Here Comes Santa Claus
TTITLE10=Little Christmas Angel
TTITLE11=It's Christmas Every Day In Alaska
TTITLE12=We Wish You A Merry Christmas
EXTD=
EXTT0=
EXTT1=
EXTT2=
EXTT3=
EXTT4=
EXTT5=
EXTT6=
EXTT7=
EXTT8=
EXTT9=
EXTT10=
EXTT11=
EXTT12=
PLAYORDER=
